<svg width="1374" height="652" viewBox="0 0 1374 652" fill="none" xmlns="http://www.w3.org/2000/svg"><line y1="-1" x2="144.195" y2="-1" transform="matrix(0.892324 -0.451396 -0.451396 -0.892324 162.145 117.753)" stroke="#F3B35B" stroke-width="2"></line><line y1="-1" x2="144.195" y2="-1" transform="matrix(0.892324 -0.451396 -0.451396 -0.892324 0.299805 439.982)" stroke="#F3B35B" stroke-width="2"></line><line y1="-1" x2="84.5555" y2="-1" transform="matrix(0.892324 -0.451396 -0.451396 -0.892324 64.6333 374.893)" stroke="#60D88F" stroke-width="2"></line><line y1="-1" x2="30.5177" y2="-1" transform="matrix(0.892324 -0.451396 -0.451396 -0.892324 62.001 649.447)" stroke="#E14A72" stroke-width="2"></line><line y1="-1" x2="190.37" y2="-1" transform="matrix(0.892324 -0.451396 -0.451396 -0.892324 151.775 604.801)" stroke="#56C3B9" stroke-width="2"></line><line y1="-1" x2="190.37" y2="-1" transform="matrix(0.892324 -0.451396 -0.451396 -0.892324 639.733 109.514)" stroke="#56C3B9" stroke-width="2"></line><line y1="-1" x2="190.37" y2="-1" transform="matrix(0.892324 -0.451396 -0.451396 -0.892324 1276.7 250.725)" stroke="#F3B35B" stroke-width="2"></line><line y1="-1" x2="64.4261" y2="-1" transform="matrix(0.892324 -0.451396 -0.451396 -0.892324 264.156 472.636)" stroke="#876AF1" stroke-width="2"></line><line y1="-1" x2="64.4261" y2="-1" transform="matrix(0.892324 -0.451396 -0.451396 -0.892324 951.955 250.725)" stroke="#876AF1" stroke-width="2"></line><line y1="-1" x2="64.4261" y2="-1" transform="matrix(0.892324 -0.451396 -0.451396 -0.892324 1032.59 29.6638)" stroke="#876AF1" stroke-width="2"></line><line y1="-1" x2="64.4261" y2="-1" transform="matrix(0.892324 -0.451396 -0.451396 -0.892324 240.238 289.689)" stroke="#56C3B9" stroke-width="2"></line></svg>